/* XPM */
static char *d3c1f87c681a4045c40aa3e45e13d798vx2DGTNMKtyHdv3Q[] = {
/* columns rows colors chars-per-pixel */
"16 16 121 2 ",
"   c #2857C9",
".  c #2454C8",
"X  c #2252C8",
"o  c #2051C7",
"O  c #1F50C7",
"+  c #1B4DC6",
"@  c #2756C9",
"#  c #1E4FC7",
"$  c #2353C8",
"%  c #1D4EC6",
"&  c #1C4DC6",
"*  c #2B59CA",
"=  c #2A58CA",
"-  c #1A4CC6",
";  c #2656C9",
":  c #1C4EC6",
">  c #2151C7",
",  c #2957C9",
"<  c #2555C9",
"1  c #2C5ACA",
"2  c #2A59CA",
"3  c #2958CA",
"4  c #2958C9",
"5  c #2655C9",
"6  c #2554C8",
"7  c #2656CA",
"8  c #2050C7",
"9  c #184BC5",
"0  c #194BC6",
"q  c #194BC5",
"w  c #2555C8",
"e  c #1B4DC7",
"r  c #2051C9",
"t  c #1D4FC8",
"y  c #8796A6",
"u  c #2B5ACA",
"i  c #174AC5",
"p  c #2856C8",
"a  c #184AC5",
"s  c #2C57C3",
"d  c #4159A2",
"f  c #2152C8",
"g  c #515C8D",
"h  c #4D619D",
"j  c #6C6A79",
"k  c #576A9E",
"l  c #3259BC",
"z  c #184BC7",
"x  c #747787",
"c  c #6376A3",
"v  c #184BC8",
"b  c #2D4FAE",
"n  c #2152C7",
"m  c #194CC6",
"M  c #4060B2",
"N  c #1B4CC6",
"B  c #4A5F9F",
"V  c #7A8395",
"C  c #5D77AF",
"Z  c #565D83",
"A  c #38529F",
"S  c #1D4FC7",
"D  c #7183A6",
"F  c #305BC1",
"G  c #6682B5",
"H  c #234EBB",
"J  c #77665D",
"K  c #4F629B",
"L  c #85817E",
"P  c #3D5CAF",
"I  c #5B7BBA",
"U  c #7F94AF",
"Y  c #71778D",
"T  c #2D59C4",
"R  c #3754A7",
"E  c #949C9C",
"W  c #2454CA",
"Q  c #61729B",
"!  c #696D84",
"~  c #2151C8",
"^  c #6379A7",
"/  c #6981AF",
"(  c #767C8E",
")  c #1B4DC8",
"_  c #2652BE",
"`  c #2051C8",
"'  c #4E639E",
"]  c #94958D",
"[  c #305CC4",
"{  c #345AB9",
"}  c #2454C9",
"|  c #A5AEA5",
" . c #9CABAC",
".. c #3A62BE",
"X. c #7A91B2",
"o. c #8694A2",
"O. c #4E65A4",
"+. c #95A2A6",
"@. c #2956C3",
"#. c #707C99",
"$. c #1D4EC7",
"%. c #6D7C9F",
"&. c #58648F",
"*. c #4766B1",
"=. c #3054B3",
"-. c #7D7D84",
";. c #2F53B3",
":. c #2B56BF",
">. c #1C4FC9",
",. c #595F84",
"<. c #7A7272",
"1. c #63637A",
"2. c #3156B5",
"3. c #335EC2",
"4. c #808B9A",
"5. c #436AC0",
"6. c #3E57A0",
"7. c #3557B1",
"8. c #A09C88",
"9. c #5F78AD",
"0. c #2453C7",
/* pixels */
"& % # O o n X $ . < @   , = * 1 ",
"& % # O o > X $ . < ;   , = * 1 ",
"& % # O o > ~ r $ w ; @   = * 1 ",
"+ : # O 8 ` ..X.E L B 7   3 2 u ",
"+ : S # O O.8.| o.Y P 7   4 2 * ",
"+ : % t =.<.#.+.] ' W @   , = * ",
"+ & % >.6.1.-.y %.{ } ; @   3 2 ",
"N & % t ;.,.&.9.*.0.6 5 @   4 = ",
"- e ) $.# 2.7.8 r $ . < 7 @ , 3 ",
"m H R _ :.@.3.5.[ T F M l s   4 ",
"v A J ! ( 4.y  .U D V x j g @   ",
"z b Z K Q ^ / I G C c k h d p   ",
"q - + e % # # O > X $ $ . < ; @ ",
"9 0 - + : % # O o > X $ . 6 5 ; ",
"a q - + & % # O 8 o f X $ . 6 5 ",
"i 9 0 - + : % # O o > X $ $ . w "
};
