/* XPM */
static char *_f1af47df08243e5ed0e756d0adf6983nAKipmwFCMbAAeyG[] = {
/* columns rows colors chars-per-pixel */
"64 64 256 2 ",
"   c #1E4FC7",
".  c #1A4CC6",
"X  c #2252C8",
"o  c #2655C9",
"O  c #2353C8",
"+  c #1B4DC6",
"@  c #2454C8",
"#  c #2756C9",
"$  c #2857C9",
"%  c #1F50C7",
"&  c #1D4EC6",
"*  c #1C4EC6",
"=  c #2051C7",
"-  c #1C4DC6",
";  c #2555C9",
":  c #2B59CA",
">  c #2151C7",
",  c #2554C8",
"<  c #2A58CA",
"1  c #2B5ACA",
"2  c #2152C8",
"3  c #2958CA",
"4  c #2656C9",
"5  c #1D4FC7",
"6  c #2A59CA",
"7  c #2958C9",
"8  c #2050C7",
"9  c #194BC5",
"0  c #2957C9",
"q  c #1D4EC7",
"w  c #174AC5",
"e  c #194BC6",
"r  c #2555C8",
"t  c #2253C8",
"y  c #184BC5",
"u  c #1B4CC6",
"i  c #1E50CA",
"p  c #2453C8",
"a  c #1B4DC8",
"s  c #2455CB",
"d  c #1E50C9",
"f  c #2051C9",
"g  c #2251C6",
"h  c #2253CA",
"j  c #1D4FC8",
"k  c #2354CB",
"l  c #355BB9",
"z  c #194CC6",
"x  c #2554C6",
"c  c #224DBC",
"v  c #335EC2",
"b  c #3059BE",
"n  c #2D59C4",
"m  c #AF8846",
"M  c #C9AD64",
"N  c #B69350",
"B  c #4863A9",
"V  c #2C58C2",
"C  c #2A57C5",
"Z  c #DECB7F",
"A  c #1C4EC9",
"S  c #2757C9",
"D  c #7D5E44",
"F  c #315CC3",
"G  c #4059A3",
"H  c #184CC9",
"J  c #6D6D80",
"K  c #595C7C",
"L  c #2755C6",
"P  c #85898F",
"I  c #E7D686",
"U  c #2451C0",
"Y  c #F6EC99",
"T  c #5979B8",
"R  c #3153B0",
"E  c #8D6B42",
"W  c #515C8C",
"Q  c #5168A3",
"!  c #4B5E9A",
"~  c #5D678D",
"^  c #CCB166",
"/  c #566493",
"(  c #F9F09C",
")  c #A47A3A",
"_  c #878078",
"`  c #B19051",
"'  c #BA9A55",
"]  c #859AB1",
"[  c #A87F3D",
"{  c #3E61B7",
"}  c #C3A55E",
"|  c #A69B7B",
" . c #2E55B8",
".. c #395FBC",
"X. c #5471B1",
"o. c #F2E694",
"O. c #53679D",
"+. c #CAB87A",
"@. c #96703F",
"#. c #DFDC9F",
"$. c #768EB2",
"%. c #3861C2",
"&. c #5E7AB2",
"*. c #966526",
"=. c #806854",
"-. c #2A55BE",
";. c #D2B96E",
":. c #DBC679",
">. c #505E90",
",. c #7D7068",
"<. c #3858AD",
"1. c #976B34",
"2. c #4169C1",
"3. c #2653C2",
"4. c #D7C176",
"5. c #988261",
"6. c #7082A4",
"7. c #2550BC",
"8. c #8E6534",
"9. c #57628D",
"0. c #766762",
"q. c #5172B7",
"w. c #3C549F",
"e. c #D6CA8A",
"r. c #C2A159",
"t. c #5D5B75",
"y. c #E3D385",
"u. c #6F768E",
"i. c #8B8175",
"p. c #4660A6",
"a. c #A7864F",
"s. c #4E6BAE",
"d. c #2154CF",
"f. c #4463B0",
"g. c #677090",
"h. c #646987",
"j. c #D5BE73",
"k. c #676070",
"l. c #3458B4",
"z. c #5F719F",
"x. c #6D6A77",
"c. c #997544",
"v. c #6C86B3",
"b. c #A48A5C",
"n. c #BAA164",
"m. c #7E818A",
"M. c #AA7F3C",
"N. c #CAAF67",
"B. c #8B6D4C",
"V. c #B6A370",
"C. c #C5BF91",
"Z. c #A0A497",
"A. c #85715E",
"S. c #EFE79A",
"D. c #2B52B7",
"F. c #BCB994",
"G. c #9F7232",
"H. c #486DBE",
"J. c #B6B089",
"K. c #95672C",
"L. c #AFA37D",
"P. c #B1B8A4",
"I. c #87633E",
"U. c #756C6E",
"Y. c #CDCC9D",
"T. c #8995A0",
"R. c #5F7FBB",
"E. c #A3AFAB",
"W. c #CCBD80",
"Q. c #E6DE98",
"!. c #979D98",
"~. c #D4D29C",
"^. c #DBD89E",
"/. c #A6956F",
"(. c #8F8F8A",
"). c #395BB2",
"_. c #7D8CA3",
"`. c #6C7B9B",
"'. c #868D96",
"]. c #BC9E5D",
"[. c #868585",
"{. c #415EAC",
"}. c #2152C7",
"|. c #DAD394",
" X c #EDDF8F",
".X c #898A8A",
"XX c #1D4EC3",
"oX c #5C6B97",
"OX c #ABA587",
"+X c #A0783F",
"@X c #AE935C",
"#X c #3D5FB5",
"$X c #AA9364",
"%X c #A27E48",
"&X c #EADD8E",
"*X c #9D8F72",
"=X c #3857A9",
"-X c #8A929A",
";X c #B19C6B",
":X c #9B7B4C",
">X c #B9AD81",
",X c #455999",
"<X c #7C8697",
"1X c #4569BB",
"2X c #E6DA8F",
"3X c #AE8E54",
"4X c #796150",
"5X c #AA8C56",
"6X c #455CA0",
"7X c #C7BB85",
"8X c #5771AC",
"9X c #A57E41",
"0X c #848D9A",
"qX c #C5C299",
"wX c #866A4D",
"eX c #6B7088",
"rX c #565D83",
"tX c #927652",
"yX c #3D64BE",
"uX c #91A1AB",
"iX c #8C9BA7",
"pX c #ACAE97",
"aX c #E8E4A0",
"sX c #7B7A81",
"dX c #D0B970",
"fX c #BDC4A9",
"gX c #E5DA91",
"hX c #495488",
"jX c #1B4DC5",
"kX c #6A7593",
"lX c #B59F69",
"zX c #69779B",
"xX c #EFE18D",
"cX c #93A1A7",
"vX c #9C9279",
"bX c #695A5E",
"nX c #C0B381",
"mX c #BCC0A2",
"MX c #817872",
"NX c #97896F",
"BX c #BDA669",
"VX c #556CA6",
"CX c #778095",
"ZX c #B6A87B",
"AX c #67687D",
"SX c #A28E67",
"DX c #8696A7",
"FX c #CCB570",
"GX c #8090A7",
"HX c #A3A08C",
"JX c #6D6166",
"KX c #647BA8",
"LX c #BEB78C",
"PX c #DEC97B",
"IX c #CDB46B",
"UX c #ABAA90",
/* pixels */
"+ - - * * & & 5 5       % % % % 8 = = > > > 2 X X X t O O O O @ @ @ , , ; ; o o 4 # # # # $ $ $ $ 0 7 3 3 < 6 6 : : : 1 1 1 1 1 ",
"+ - - * * & & q 5       % % % % 8 = = = > > 2 X X X t O O O O @ @ @ , , ; ; o o 4 4 # # # $ $ $ $ 0 7 3 3 < < 6 : : : 1 1 1 1 1 ",
"+ - - * * & & q 5       % % % % 8 = = = > > 2 X X X t O O O O @ @ @ , , ; ; o o o 4 # # # $ $ $ $ 0 7 3 3 < < 6 : : : 1 1 1 1 1 ",
"+ - - * * & & q 5       % % % % 8 = = = > > 2 X X X t O O O O @ @ @ , , ; ; o o o 4 # # # $ $ $ $ 0 7 3 3 < < 6 : : : 1 1 1 1 1 ",
"+ - - * * & & q 5       % % % % 8 = = = > > 2 X X X X O O O O @ @ @ , , r ; o o o 4 # # # S $ $ $ 0 7 3 3 < < 6 6 : : : 1 1 1 1 ",
"+ - - * * & & q 5         % % % 8 = = = > > 2 2 X X X O O O O @ @ @ @ , r ; o o o 4 # # # # $ $ $ 0 7 3 3 < < 6 6 : : : 1 1 1 1 ",
"+ + - * * & & q 5         % % % 8 = = = > > 2 2 X X X O O O O @ @ @ @ , r ; o o o 4 # # # # $ $ $ $ 7 7 3 < < 6 6 : : : 1 1 1 1 ",
"+ + - * * & & q 5         % % % 8 = = = > > 2 2 X X X O O O O p @ @ @ , r ; ; o o 4 # # # # $ $ $ $ 0 7 3 < < 6 6 : : : 1 1 1 1 ",
"+ + - * * & & & 5         % % % 8 8 = = > > 2 2 X X X t O O O p @ @ @ , r ; ; o o 4 # # # # $ $ $ $ 0 7 3 < < 6 6 : : : 1 1 1 1 ",
"+ + - - * * & & 5         % % % % 8 = = > > 2 2 X X X t O O O p @ @ @ , , ; ; o o 4 4 # # # $ $ $ $ 0 7 3 3 < < 6 : : : 1 1 1 1 ",
"+ + - - * * & & 5         % % % % 8 = = > > }.2 X X X t O O O O @ @ @ , , ; ; o o 4 4 # # # $ $ $ $ 0 7 3 3 < < 6 6 : : : 1 1 1 ",
"+ + - - * * & & q         % % % % 8 = = = > > 2 X X X t O O O O @ @ @ , , ; ; o o o 4 # # # S $ $ $ 0 7 3 3 < < 6 6 : : : 1 1 1 ",
"+ + - - * * & & q 5       % % % % 8 = = = > > 2 X X X X O O O 2 f 2 X O , ; ; k k s 4 # # # # $ $ $ 0 7 7 3 < < 6 6 : : : 1 1 1 ",
"+ + - - * * & & q 5       % % % % 8 = = = > > 2 2 X X X f f 7 2.T v._.'..X[.sXJ ~ ! l.4 # # # $ $ $ $ 0 7 3 < < 6 6 : : : 1 1 1 ",
"+ + - - * * & & q 5         % % % 8 = = = > > 2 2 2 f L H.] fX#.gXy.:.;.M r.N m ) 1.>.s # # # $ $ $ $ 0 7 3 3 < < 6 : : : 1 1 1 ",
"+ + + - * * & & q 5         % % % 8 8 = = > > 2 f x X.Z.e.o.( Y  Xy.:.dXM ].N m ) =.b 4 # # # $ $ $ $ 0 7 3 3 < < 6 6 : : : 1 1 ",
"+ + + - * * & & & 5         % % % % 8 = = > > f { (.+.Z I o.( Y  Xy.:.;.M r.N m +X! s 4 # # # # $ $ $ 0 7 7 3 < < 6 6 : : : 1 1 ",
"+ + + - - * * & & 5         % % % % 8 = = = g Q /.^ j.Z I o.( S.|.C.J.OX| /.b.a.,.C o 4 # # # # $ $ $ $ 0 7 3 < < 6 6 : : : 1 1 ",
"+ + + - - * * & & q 5       % % % % 8 = = g oX@X} ^ j.Z e.P.] R.2.%.F n n b l {.l ; o 4 # # # # $ $ $ $ 0 7 3 3 < < 6 6 : : : 1 ",
"+ + + - - * * & & q 5         % % % 8 = % / a.' } ^ >X_.1XL f d f 2 t t O @ @ k s o o 4 4 # # # $ $ $ $ 0 7 3 3 < < 6 6 : : : 1 ",
"+ + + + - * * & & q 5         % % % 8 d G :Xm ' n.P ..= d d O C v ....l b V L r ; o o o 4 # # # # $ $ $ 0 7 7 3 < < 6 6 : : : 1 ",
"u + + + - * * * & & 5         % % % % U 0.[ m @Xz.x i O yXv.E.mXC.nXV.$X5.A.W @ ; o o o 4 # # # # $ $ $ $ 0 7 3 3 < < 6 6 : : : ",
"u + + + - - * * & & 5         % % % d ,X@.[ a.O.= = { '.7X&X( o.I 4.N.' m c.G k ; ; o o 4 # # # # $ $ $ $ 0 7 3 3 < < 6 6 : : : ",
"u + + + - - * * & & q 5       % % % % k.G.9Xh.= g oX;X;.Z &XY o.I 4.N.' m x.x , ; ; o o o 4 # # # S $ $ $ $ 7 7 3 < < 6 6 : : : ",
". + + + - - * * & & q 5         % % 7.4XG.A.-.= ~ 3X} ;.Z 2X#.Y.F.OX| $X5.).@ , r ; o o o 4 # # # # $ $ $ $ 0 7 3 3 < < 6 6 : : ",
". u + + + - * * & & q 5         % d D.I.G.9.i G :XN } ZXT.T 2.v n C V l l x @ , r ; ; o o 4 # # # # $ $ $ $ 0 7 3 3 < < 6 6 : : ",
". u + + + - - * * & & 5         % d R I.@.<.g 0.[ ` m...= A j f X 2 h h O @ @ , , ; ; o o o 4 # # # # $ $ $ $ 0 7 3 3 < < 6 : : ",
". u + + + - - * * & & q 5       % d D.I.E  .R E 9XeXx i V q.] cX-Xm.h.<.O @ @ , , r ; o o o 4 # # # # $ $ $ $ 0 7 3 3 < < 6 6 : ",
". . + + + - - * * & & q 5         % U 4XE  .w.1.,.3.g O.| Z Y xX4.r.%X6Xh @ @ @ , r ; ; o o 4 4 # # # $ $ $ $ 0 7 7 3 < < 6 6 : ",
". . + + + + - * * & & & 5         % d K @.<.w.1.>.d 9.3XV.Z.] $.6.u.~ x O @ @ @ , , ; ; o o o 4 # # # # $ $ $ $ 0 7 3 3 < < 6 6 ",
". . u + + + - - * * & & 5         % d R B.9.R E 6XD.B.MX{ p % d f 2 O O O @ @ @ , , r ; o o o 4 # # # # $ $ $ $ 0 7 7 3 < < 6 6 ",
". . u + + + - - * * & & q 5         % d >.,. .0.! R =.l.i 2 X X t O O O O @ @ @ @ , r ; ; o o o 4 # # # # $ $ $ $ 0 7 3 3 < < 6 ",
". . . + + + - - * * & & q 5         % % g ~ ~ 6XAX .k.-.2 X X X X O O O O p @ @ @ , , ; ; o o o 4 # # # # $ $ $ $ 0 7 3 3 < < 6 ",
". . . u + + + - - * * & & 5         % % % g p.Q O.p.! l.f 2 X X X t O O O O @ @ @ @ , r ; ; o o 4 4 # # # S $ $ $ $ 0 7 3 3 < < ",
". . . u + + + - - * * & & q 5         % % % % b l l -.-.2 2 X X X X O O O O p @ @ @ , , ; ; o o o 4 # # # # $ $ $ $ 0 7 3 3 < < ",
". . . . + + + - - * * & & q 5         % % % % % % = = = > 2 2 X X X t O O O p @ @ @ , , r ; o o o 4 4 # # # S $ $ $ $ 0 7 3 3 < ",
". . . . + + + + - * * * & & 5         % % % % 8 = = = > > 2 2 X X X t O O O O @ @ @ @ , , k k ; o o 4 # # # # $ $ $ $ 0 7 7 3 < ",
". . . . u + + + + + * * & & q 5         % % % % 8 = = = j d 2 X X X X O O O O p @ @ @ , , f.Q b ; o 4 # # # # S $ $ $ $ 0 7 3 3 ",
"z . . . u + jXc 7.7.7.XXq & q 5 5 5     % % % % % = = g q.$.n = X X 2 X O O O O O @ @ @ L _ ` B k o o 4 4 # # # $ $ $ $ 0 7 7 3 ",
"z . . . . . c bXD wXwXU.R q q q U 3.5 3.g   % V V > j F Y.#.%.% = X n n t t X O n n @ O , Q g.l L C ; V V 4 # # # $ $ $ $ 0 7 3 ",
"e . . . . . c D K.JX0.) U.& U g.NX*Xz.(.`.g 6.J.LXT.F $.Q.aXE.2.%.uXqXF.GXC v 0XL.| CXb , u.i.#X/ ,.9.=.=.W L # # $ $ $ $ 0 0 7 ",
"e z . . . . c D 8.w.,X+XA.U eXN SX*Xn.M P { +.7XZ.pXyXE.o.Y aXR.P.o.qXC.pX%.!.j.L.L.M [.V i.` B J [ c.B.1.8.G s # # $ $ $ $ 0 7 ",
"e e . . . . c D K.E @.) x.l.b.5.l.3.m.^ P { +.W.!.&.> H.^.#.T R.S.P.v v v q.4.HXv ..| n.f._ ` B J M.x.b k.*.K s # # $ $ $ $ $ 0 ",
"9 e . . . . c D 8.rXrXc.tX! 5X_ q H z.M P 8 KXJ.Z e.&.F ~.^.v v.Y uXA d A &.:.0Xi 2 .X} VX_ ` B J [ / d.W *.t.s # # # $ $ $ $ $ ",
"9 e z . . . c D 8.w.=XtX%X6X5.b.O.B vX^ P b 6.X.!.I iXv ~.^.%.H.Q.Y.T &.T 1XW.>X8X8XV.;X{ _ ` B J [ / d.W *.t.s # # # # $ $ $ $ ",
"9 e e . . z c D K.E @.) U.U O.5X' ].lXM P s.+.W.e.e.&.F ~.#.%.}.] Q.2XI F.v 6.+.FXN.BXzXL i.` B J M./ d.W *.t.s # # # # $ $ $ $ ",
"9 9 e . . . XXhXK K K >.7.+ & {.u.kXf.`.s.g X.-XT.X.g L $.$.C % x T iXDXq.@ x X.<X<Xs.x @ Q g.l p.h.).k <.K G ; 4 # # # # $ $ $ ",
"9 9 e e . . . H H H H H + - * + + + a a A   A j j A % % j j = = = j % % % X X f 2 2 2 O p t h @ @ h @ r ; s ; o 4 # # # # # $ $ ",
"9 9 9 e . . . . u + + + - - * * & & q 5         % % % % 8 8 = = > > > 2 2 X X X t O O O O p @ @ @ , , r ; ; o o o 4 # # # # $ $ ",
"y 9 9 e z . . . . + + + + - - * * & & q 5         % % % % 8 = = = > > 2 2 X X X X O O O O O @ @ @ @ , , ; ; o o o 4 4 # # # # $ ",
"y 9 9 e e . . . . u + + + - - * * & & q 5         % % % % 8 8 = = = > > 2 2 X X X t O O O O p @ @ @ @ , r ; ; o o o 4 # # # # # ",
"y y 9 9 e z . . . . + + + + - - * * & & q 5         % % % % 8 = = = > > 2 2 X X X X t O O O O @ @ @ @ , , r ; ; o o o 4 # # # # ",
"y y 9 9 e e . . . . u + + + - - * * & & q 5         % % % % 8 8 = = = > > 2 2 X X X X O O O O p @ @ @ @ , , ; ; o o o 4 4 # # # ",
"w y y 9 9 e . . . . . + + + + - * * * & & q 5         % % % % 8 = = = > > > 2 X X X X t O O O O p @ @ @ @ , r ; ; o o o 4 4 # # ",
"w y y 9 9 e e . . . . u + + + - - * * & & q 5           % % % % 8 = = = > > 2 2 X X X X O O O O O @ @ @ @ , , r ; ; o o o 4 # # ",
"w w y 9 9 9 e . . . . u + + + + - * * * & & q 5         % % % % 8 = = = > > > 2 2 X X X t O O O O O @ @ @ @ , , r ; ; o o o 4 # ",
"w w y y 9 9 e e . . . . u + + + - - * * & & & 5           % % % % 8 = = = > > 2 2 X X X X t O O O O p @ @ @ @ , , ; ; o o o o 4 ",
"w w w y 9 9 9 e . . . . . + + + + - * * * & & q 5         % % % % 8 8 = = = > > 2 2 X X X X O O O O O p @ @ @ @ , r ; ; o o o 4 ",
"w w w y y 9 9 e z . . . . u + + + - - * * & & & 5           % % % % 8 = = = > > > 2 2 X X X X O O O O O @ @ @ @ , , r ; ; o o o ",
"w w w w y 9 9 9 e . . . . . + + + + - - * * & & q 5         % % % % % 8 = = = > > 2 2 X X X X t O O O O O @ @ @ @ , , r ; ; o o ",
"w w w w y y 9 9 e z . . . . u + + + - - * * & & & q 5         % % % % 8 8 = = = > > 2 2 X X X X t O O O O p @ @ @ @ , , r ; ; o ",
"w w w w w y 9 9 9 e . . . . . + + + + - - * * & & q 5           % % % % 8 = = = > > > 2 2 X X X X O O O O O p @ @ @ @ , , r ; ; ",
"w w w w w y y 9 9 e e . . . . u + + + - - * * * & & q 5         % % % % % 8 = = = > > > 2 2 X X X X O O O O O p @ @ @ @ , , ; ; ",
"w w w w w w y 9 9 9 e . . . . . + + + + - - * * & & & 5 5         % % % % 8 8 = = = > > 2 2 X X X X t O O O O O @ @ @ @ , , r ; "
};
