<?xml version="1.0" standalone="no"?>
<!DOCTYPE svg PUBLIC "-//W3C//DTD SVG 20010904//EN"
 "http://www.w3.org/TR/2001/REC-SVG-20010904/DTD/svg10.dtd">
<svg version="1.0" xmlns="http://www.w3.org/2000/svg"
 width="1024.000000pt" height="1024.000000pt" viewBox="0 0 1024.000000 1024.000000"
 preserveAspectRatio="xMidYMid meet">
<metadata>
Created by potrace 1.16, written by Peter Selinger 2001-2019
</metadata>
<g transform="translate(0.000000,1024.000000) scale(0.100000,-0.100000)"
fill="#000000" stroke="none">
<path d="M0 5120 l0 -5120 5120 0 5120 0 0 5120 0 5120 -5120 0 -5120 0 0
-5120z m6235 2958 l50 -14 5 -343 c4 -251 2 -345 -6 -348 -15 -5 -45 -5 -394
3 -360 8 -609 -13 -905 -77 -22 -4 -62 -12 -90 -18 -27 -5 -61 -14 -75 -19
-14 -5 -45 -15 -70 -22 -52 -14 -126 -38 -155 -50 -11 -5 -42 -16 -70 -26 -27
-9 -54 -21 -59 -26 -6 -4 -16 -8 -23 -8 -19 0 -122 -47 -203 -92 -221 -123
-373 -242 -560 -434 l-105 -109 -3 330 c-1 182 0 345 3 363 7 39 103 145 211
232 81 66 251 190 260 190 3 0 18 8 32 19 62 42 243 137 347 180 43 18 86 37
94 41 9 5 50 21 91 35 41 15 84 30 95 35 56 23 113 40 131 40 11 0 24 3 28 7
9 9 85 30 151 43 28 5 86 16 130 25 103 20 201 33 350 46 66 6 122 13 125 16
3 2 131 3 285 0 205 -3 293 -8 330 -19z m-585 -1198 c47 -5 109 -14 138 -20
l52 -12 0 -304 0 -305 -117 5 c-373 18 -529 18 -668 2 -224 -27 -390 -61 -490
-101 -16 -7 -46 -18 -65 -25 -142 -51 -349 -186 -458 -299 l-42 -43 0 292 0
292 66 69 c37 37 103 93 148 123 83 55 342 186 368 186 8 0 18 4 24 8 9 8 72
28 179 57 141 38 123 35 360 64 158 20 378 25 505 11z m-295 -1030 c33 -6 75
-13 93 -16 l33 -5 -3 -152 -3 -152 -165 3 c-293 5 -616 -31 -710 -78 -8 -5
-46 -22 -84 -39 -37 -18 -83 -43 -102 -57 -18 -14 -38 -23 -44 -19 -7 4 -10
52 -9 136 l1 129 46 44 c52 51 144 102 253 142 87 31 153 46 324 73 71 12 285
6 370 -9z m-1700 -891 c76 -73 162 -140 231 -180 50 -28 71 -59 41 -59 -18 0
-139 72 -221 132 -101 74 -136 112 -136 149 0 37 5 34 85 -42z m405 -104 c28
-25 69 -57 91 -72 40 -26 50 -43 25 -43 -16 0 -135 85 -153 109 -12 16 -24 51
-17 51 2 0 26 -20 54 -45z m3470 -675 c5 -8 10 -56 10 -106 0 -77 -3 -95 -21
-118 -20 -25 -24 -26 -123 -26 -138 0 -140 2 -144 122 -2 51 1 106 7 121 l11
29 125 -4 c98 -2 128 -6 135 -18z m-2737 -98 c13 -14 17 -45 19 -157 l3 -140
39 3 c73 7 120 -6 139 -37 23 -38 24 -179 2 -221 -15 -30 -17 -30 -100 -30
l-85 0 0 -335 0 -335 -25 -16 c-30 -20 -139 -30 -219 -20 -43 6 -59 13 -69 29
-8 16 -13 114 -17 347 l-5 325 -42 3 c-62 5 -73 26 -73 137 0 102 13 139 50
143 73 8 70 3 70 106 0 102 15 138 62 149 13 3 61 19 108 36 100 35 121 37
143 13z m-1948 -278 c36 -14 99 -58 128 -91 16 -18 34 -33 41 -33 7 0 20 25
31 56 10 30 28 62 39 70 40 27 187 14 208 -19 4 -7 8 -222 8 -478 0 -386 -2
-468 -14 -485 -12 -16 -29 -20 -108 -22 -107 -4 -144 6 -159 45 -28 71 -32 73
-82 29 -70 -61 -123 -81 -207 -80 -87 1 -132 11 -214 47 -105 48 -256 226
-256 302 0 13 -4 27 -10 30 -6 4 -10 58 -10 130 0 72 4 126 10 130 6 3 10 17
10 31 0 13 11 42 25 64 14 22 25 45 25 51 0 12 3 15 80 93 77 79 199 134 330
149 27 3 93 -7 125 -19z m1160 12 c49 -18 80 -34 125 -66 41 -29 90 -80 90
-94 0 -13 -126 -130 -157 -147 -18 -10 -27 -9 -49 7 -70 49 -90 57 -143 58
-41 0 -56 -4 -67 -19 -8 -10 -14 -22 -14 -27 0 -14 44 -48 64 -48 38 0 198
-60 256 -96 49 -30 98 -82 123 -129 17 -33 20 -58 20 -135 0 -110 -12 -143
-73 -213 -74 -83 -190 -127 -340 -127 -146 0 -272 50 -353 139 -56 62 -51 84
32 164 38 37 72 67 76 67 4 0 34 -18 67 -40 81 -54 148 -73 202 -59 48 13 76
35 76 60 0 21 -44 57 -79 65 -104 23 -225 79 -281 130 -61 56 -90 126 -90 223
0 89 9 117 57 178 37 46 81 77 151 103 60 23 248 26 307 6z m1728 -1 c46 -14
119 -48 164 -76 12 -7 27 -25 33 -40 10 -23 6 -36 -38 -110 -28 -47 -62 -91
-75 -98 -23 -12 -32 -10 -100 23 -121 59 -214 46 -287 -41 -116 -138 -60 -351
104 -398 52 -15 60 -15 111 0 31 9 70 25 88 35 40 25 79 25 99 3 50 -58 109
-159 106 -182 -5 -41 -97 -97 -229 -139 -19 -7 -74 -12 -121 -12 -254 0 -463
169 -524 425 -22 96 -13 190 29 295 29 73 49 102 117 171 56 56 93 84 143 108
38 17 76 31 85 31 9 0 24 5 32 10 23 15 208 12 263 -5z m940 -1 c191 -49 328
-173 387 -351 25 -74 27 -230 5 -300 -43 -132 -112 -224 -219 -292 -129 -81
-273 -108 -408 -76 -40 10 -77 21 -82 26 -6 5 -16 9 -23 9 -7 0 -32 12 -56 28
-278 176 -339 525 -137 781 63 79 168 142 300 179 54 15 166 14 233 -4z m851
-36 c14 -20 16 -82 16 -479 0 -412 -2 -458 -17 -470 -11 -10 -48 -14 -132 -14
-113 0 -116 1 -128 25 -16 31 -19 893 -3 934 9 26 10 26 129 26 113 0 121 -1
135 -22z"/>
<path d="M2663 3552 c-49 -16 -109 -69 -136 -121 -22 -44 -27 -66 -27 -126 0
-152 92 -247 237 -247 137 0 253 113 253 246 0 89 -62 191 -142 232 -35 18
-148 28 -185 16z"/>
<path d="M6464 3535 c-135 -59 -180 -270 -83 -389 36 -42 121 -86 169 -86 58
0 124 28 162 68 112 116 78 336 -63 406 -39 20 -141 20 -185 1z"/>
</g>
</svg>
