/* XPM */
static char *_a7c23dcc39b401a9451ef504f32defbwDysdTS7GicaOzQD[] = {
/* columns rows colors chars-per-pixel */
"32 32 256 2 ",
"   c #2857C9",
".  c #2252C8",
"X  c #2655C9",
"o  c #1A4CC6",
"O  c #1F50C7",
"+  c #2353C8",
"@  c #1D4EC6",
"#  c #1E4FC7",
"$  c #2756C9",
"%  c #1B4DC6",
"&  c #2454C8",
"*  c #1C4DC6",
"=  c #1C4EC6",
"-  c #2B59CA",
";  c #2051C7",
":  c #2A58CA",
">  c #2958C9",
",  c #2554C8",
"<  c #2151C7",
"1  c #2A59CA",
"2  c #2152C8",
"3  c #1D4FC7",
"4  c #2656C9",
"5  c #2555C9",
"6  c #2050C7",
"7  c #2C5ACA",
"8  c #2958CA",
"9  c #194BC5",
"0  c #2957C9",
"q  c #2555C8",
"w  c #174AC5",
"e  c #2353C9",
"r  c #184BC5",
"t  c #1B4CC6",
"y  c #194BC6",
"u  c #194CC6",
"i  c #1C4EC7",
"p  c #1A4DC8",
"a  c #2453C8",
"s  c #184CC8",
"d  c #2455CA",
"f  c #2051C9",
"g  c #2253C8",
"h  c #2656CA",
"j  c #1E4FC8",
"k  c #2051C8",
"l  c #1D4FC9",
"z  c #1E50C8",
"x  c #2B5ACA",
"c  c #51567E",
"v  c #2C57C2",
"b  c #2554C7",
"n  c #2654C6",
"m  c #325CC1",
"M  c #1F4FC7",
"N  c #2556CC",
"B  c #194CC7",
"V  c #465999",
"C  c #2D57C0",
"Z  c #2253CB",
"A  c #646783",
"S  c #2756C7",
"D  c #2653C2",
"F  c #1C4EC8",
"G  c #6C7C9E",
"H  c #2152C7",
"J  c #9B9E93",
"K  c #375CB9",
"L  c #2350C0",
"P  c #355DBC",
"I  c #3357B4",
"U  c #3156B8",
"Y  c #5D7BB6",
"T  c #3862C3",
"R  c #305CC3",
"E  c #3A63C1",
"W  c #5073BE",
"Q  c #937B5B",
"!  c #6E7A96",
"~  c #2F56BB",
"^  c #3858AD",
"/  c #294FB2",
"(  c #3257B7",
")  c #3351A6",
"_  c #695E68",
"`  c #3F559A",
"'  c #3D57A2",
"]  c #786253",
"[  c #716262",
"{  c #455EA6",
"}  c #72605B",
"|  c #535A82",
" . c #3D5CAF",
".. c #7C716D",
"X. c #566392",
"o. c #3C5EB4",
"O. c #7B787F",
"+. c #2A56C4",
"@. c #3658B3",
"#. c #325ABC",
"$. c #817367",
"%. c #796A65",
"&. c #4E5D90",
"*. c #4C65A8",
"=. c #425CA8",
"-. c #7E7A7C",
";. c #7B6C63",
":. c #315ABE",
">. c #6E7489",
",. c #7B7C85",
"<. c #6A7391",
"1. c #7A6251",
"2. c #7A6250",
"3. c #606E96",
"4. c #5A6C9E",
"5. c #365DBD",
"6. c #6E6C7C",
"7. c #836E5A",
"8. c #2651BC",
"9. c #706D78",
"0. c #5670AC",
"q. c #2C55BA",
"w. c #8D8B85",
"e. c #816D5D",
"r. c #526192",
"t. c #4964A7",
"y. c #7D797B",
"u. c #1F4FC6",
"i. c #375FBE",
"p. c #90918C",
"a. c #747E96",
"s. c #99917C",
"d. c #4868B4",
"f. c #2A53BA",
"g. c #365FC1",
"h. c #9B9886",
"j. c #999B91",
"k. c #667EAF",
"l. c #7F7E82",
"z. c #A6A48D",
"x. c #4363B0",
"c. c #7D899D",
"v. c #8A7E6F",
"b. c #636E90",
"n. c #2A55BE",
"m. c #A89A75",
"M. c #3D5EB0",
"N. c #1C4DC8",
"B. c #335EC3",
"V. c #576595",
"C. c #5167A1",
"Z. c #617CB1",
"A. c #8C704F",
"S. c #89837C",
"D. c #5270B4",
"F. c #99927F",
"G. c #9AA5A3",
"H. c #4C6CB4",
"J. c #4A6FBE",
"K. c #ACB5A5",
"L. c #B9BEA4",
"P. c #3F66BF",
"I. c #ABB09E",
"U. c #2352C5",
"Y. c #6781B2",
"T. c #5B79B6",
"R. c #A4A797",
"E. c #879BB0",
"W. c #2D59C2",
"Q. c #928E82",
"!. c #2753C2",
"~. c #B3BBA6",
"^. c #6883B3",
"/. c #879DB4",
"(. c #8C9499",
"). c #8E999E",
"_. c #2B56BF",
"`. c #BEB98F",
"'. c #4D6EB6",
"]. c #E3DD9B",
"[. c #5F75A5",
"{. c #2957C3",
"}. c #2A58C4",
"|. c #C2C5A3",
" X c #7790B5",
".X c #8D9EAD",
"XX c #495992",
"oX c #4D629D",
"OX c #5E6383",
"+X c #5B70A5",
"@X c #B08C4B",
"#X c #4B609C",
"$X c #4C63A3",
"%X c #3A5AB0",
"&X c #969284",
"*X c #3F5AA5",
"=X c #C3A660",
"-X c #5C5C78",
";X c #5F607C",
":X c #5974AF",
">X c #A28657",
",X c #5A6083",
"<X c #4D6FBB",
"1X c #D3BE76",
"2X c #AA9970",
"3X c #ABB2A2",
"4X c #5971A8",
"5X c #585B7D",
"6X c #616179",
"7X c #646072",
"8X c #4A5B95",
"9X c #66677F",
"0X c #355BB8",
"qX c #B9AE83",
"wX c #DED28D",
"eX c #3F579F",
"rX c #806B59",
"tX c #4F5F93",
"yX c #565F87",
"uX c #5D678E",
"iX c #D1CA92",
"pX c #D5D5A1",
"aX c #C7A75B",
"sX c #A19F8C",
"dX c #7085AA",
"fX c #3658B0",
"gX c #9A7643",
"hX c #5B6996",
"jX c #8A8B8A",
"kX c #616B8E",
"lX c #796E6B",
"zX c #8F7F68",
"xX c #4A67AD",
"cX c #94856C",
"vX c #5673B3",
"bX c #4166BC",
"nX c #385CB6",
"mX c #7B8BA5",
"MX c #EDE69C",
"NX c #4469BE",
"BX c #737C94",
"VX c #A0AAA5",
"CX c #EFE08D",
"ZX c #D7CC8B",
"AX c #A3A89B",
"SX c #C7AB63",
"DX c #8B8D8D",
"FX c #D3C17C",
"GX c #7D91AD",
"HX c #6C87B6",
"JX c #E1CD7D",
"KX c #869AB1",
"LX c #B1AB89",
"PX c #AE8E52",
"IX c #BEA76C",
"UX c #F4E996",
/* pixels */
"% * @ @ # # O O 6 ; < 2 . + + a & , 5 X 4 $ $     > : 1 - - 7 7 ",
"% * = @ # # O O 6 ; < 2 . g + a & , 5 X 4 $ $     > : 1 - - 7 7 ",
"% * = @ # # O O 6 ; < 2 . g + a & , 5 X 4 $ $     > 8 : - - 7 7 ",
"% * = @ 3 # O O 6 ; < 2 . g + + & , q X X $ $     > 8 : 1 - 7 7 ",
"% * = @ 3 # M O 6 ; < 2 . . + + & & q X X $ $     > 8 : 1 - x 7 ",
"% * = @ 3 # # O 6 ; < 2 . . + . 2 2 Z Z d 4 $     0 8 : 1 - x 7 ",
"% * = @ 3 # # O O ; < < 2 f & T <X:X+XC.=.v $     0 > : 1 - - 7 ",
"% * = @ i # # O O ; ; k n vXVXpXwX1X=X@XA.@.h $     > : 1 - - 7 ",
"% * = @ @ # # O O ; z 0XjXFXCXMXiXqX2X>XA X $ $     > 8 : 1 - x ",
"% % * = @ # # O O z I cXSXLXGXW E R m K v X $ $     0 8 : 1 - - ",
"% % * = @ 3 # O O L lXPX! m NXHXmXBXuXU d X 4 $     0 > : 1 - - ",
"% % * = @ 3 # # l eXgXkXnXDXZXUXJXaXQ ( d X 4 $ $     > 8 : 1 - ",
"t % * = @ i # # l 5XrXfXzXIXAXKXdX! $X& q X X $ $     0 8 : 1 - ",
"o % % = @ @ # # l -X6XyXQ xXbXY 4X%Xe & , 5 X 4 $     0 > : 1 - ",
"o % % * = @ 3 # l XX;X7XtXhXsX3X&XV.+ & , 5 X 4 $ $     > 8 : 1 ",
"o t % * = @ 3 # j f.OX,X8X9XP b n b + & , q X X $ $     0 > : 1 ",
"o t % * = @ i # # j I oX#X*Xk . . + + & & , 5 X 4 $ $     > 8 : ",
"o o % % * = @ # # O z D _.!.H . . + + & & , & d X $ $     0 > : ",
"o o % p p p i 3 3 # O j z ; H . . 2 + + + & :.K 5 4 $ $     > 8 ",
"o o B ) | &.8.u.n.D U.{.W.R E.T b B.S n m q *.3.+.C v h     0 > ",
"u o s c 1.7.r.b.S.Q.[.J ).^.]./..XI.Z.c.h.a.4.>.6.%.[ ( h     0 ",
"y o s c 2.e.9.v.M.F.G J R.T.|. XL.P.D.z.d.s.,.-.$.X.} V N       ",
"9 u s c ] ;.A y.l.m.G (.`.Y.~.W K.G.k.j.p.w.<.O...{ _ V N $     ",
"9 y u / ` ' L q.t.x.#.H.'.}.J.S E Y g.i.0.5.#.o. .C ^ ~ h $ $   ",
"9 9 o B s s % % p p i N.F # F 6 O j k k f . e e e & d 5 X $ $ $ ",
"r 9 y o o % % * = @ 3 # # O O 6 ; < 2 . . + + a & , q 5 X 4 $ $ ",
"r 9 y o o t % * = @ @ # # O O 6 ; ; < 2 . . + + & & , q X X 4 $ ",
"w r 9 u o o % % * = @ 3 # # O O 6 ; < 2 . . + + + & & , 5 X X 4 ",
"w r 9 y o o t % * = @ @ # # M O O ; ; < 2 . . + + a & & , 5 X X ",
"w w r 9 u o o % % * = @ 3 # # O O 6 ; < < 2 . . + + & & , q 5 X ",
"w w r 9 y o o t % * = @ @ 3 # # O O 6 ; < 2 . . g + + & & , q 5 ",
"w w w r 9 u o o % % * = @ i # # O O 6 ; ; < 2 . . + + + & & , q "
};
